<svg height="512" viewBox="0 0 64 64" width="512" xmlns="http://www.w3.org/2000/svg"><g id="Layer_2" data-name="Layer 2"><path d="m44.043 30.242a16.5 16.5 0 1 0 -24.086 0 23.314 23.314 0 0 0 -12.457 20.701v3.87a6.7 6.7 0 0 0 6.687 6.687h35.626a6.7 6.7 0 0 0 6.687-6.687v-3.87a23.314 23.314 0 0 0 -12.457-20.701zm-12.043-24.742a13.5 13.5 0 1 1 -13.5 13.5 13.515 13.515 0 0 1 13.5-13.5zm21.5 49.313a3.691 3.691 0 0 1 -3.687 3.687h-35.626a3.691 3.691 0 0 1 -3.687-3.687v-3.87a20.34 20.34 0 0 1 11.887-18.56 16.382 16.382 0 0 0 19.226 0 20.34 20.34 0 0 1 11.887 18.56z"/></g></svg>